<?xml version="1.0" encoding="UTF-8"?>
<svg version="1.1" xmlns="http://www.w3.org/2000/svg" width="2000" height="492">
<path d="M0 0 C6.79294248 6.59636215 12.69459432 13.40456286 17.9921875 21.234375 C18.42208984 21.8648877 18.85199219 22.49540039 19.29492188 23.14501953 C21.54083156 26.56957532 22.76484264 29.34633203 23.4296875 33.359375 C22.76026123 33.80216797 22.09083496 34.24496094 21.40112305 34.70117188 C18.30478043 36.7513555 15.21097956 38.80534472 12.1171875 40.859375 C11.06466797 41.55546875 10.01214844 42.2515625 8.92773438 42.96875 C2.75174052 47.07341053 -3.23522834 51.29599032 -9.0546875 55.89599609 C-12.03514314 57.62977435 -13.85138623 57.74071967 -17.2578125 57.484375 C-23.92251977 55.60992608 -26.8432412 50.86492431 -30.5703125 45.359375 C-44.53701752 26.58255995 -62.27621241 14.7559877 -85.50317383 10.75195312 C-91.10167556 10.03537342 -96.68307924 10.02040912 -102.3203125 10.046875 C-103.556604 10.05178955 -104.79289551 10.0567041 -106.06665039 10.06176758 C-126.35754832 10.32209557 -145.60656821 15.73764274 -160.953125 29.65234375 C-167.46625092 36.52731 -171.45574661 44.49016198 -174.5703125 53.359375 C-174.8178125 54.06191406 -175.0653125 54.76445313 -175.3203125 55.48828125 C-179.15696006 69.10305142 -177.22685444 85.3505629 -171.0703125 97.859375 C-152.54856634 129.48741819 -110.06747024 144.98185163 -78.5078125 159.359375 C-52.58659666 171.18838382 -26.62309276 184.09029839 -4.5703125 202.359375 C-3.99200684 202.8322998 -3.41370117 203.30522461 -2.81787109 203.79248047 C21.12381362 223.42760113 37.63298078 248.14691397 41.4296875 279.359375 C41.54054688 280.17792969 41.65140625 280.99648438 41.765625 281.83984375 C45.52569627 314.61343791 38.48193797 347.37524747 17.79296875 373.53125 C17.01308594 374.46453125 16.23320313 375.3978125 15.4296875 376.359375 C14.59824219 377.35453125 13.76679687 378.3496875 12.91015625 379.375 C-10.41692086 406.40671125 -45.48504958 420.98865326 -80.55419922 424.15283203 C-124.4780372 427.16072963 -169.04278856 418.67004511 -203.1328125 389.34765625 C-206.38718174 386.45834686 -209.5017505 383.44424288 -212.5703125 380.359375 C-213.50230469 379.42738281 -214.43429687 378.49539063 -215.39453125 377.53515625 C-225.30482005 367.17247195 -233.29713879 355.31927088 -240.7578125 343.109375 C-241.31976318 342.1980481 -241.31976318 342.1980481 -241.89306641 341.26831055 C-243.86441213 337.95244179 -244.91831796 335.13749702 -245.5703125 331.359375 C-243.70450819 330.09102651 -241.8385996 328.82283143 -239.97265625 327.5546875 C-239.39104736 327.1593985 -238.80943848 326.7641095 -238.21020508 326.35684204 C-235.01949024 324.1888751 -231.82745828 322.02288307 -228.63305664 319.86035156 C-227.35172069 318.9928453 -226.07038928 318.12533232 -224.7890625 317.2578125 C-224.1582225 316.83077026 -223.52738251 316.40372803 -222.87742615 315.96374512 C-219.39773253 313.60582954 -215.93022691 311.23191719 -212.4765625 308.8359375 C-211.4402771 308.1241333 -211.4402771 308.1241333 -210.38305664 307.39794922 C-209.16564324 306.56140347 -207.95351957 305.71708723 -206.74780273 304.86376953 C-205.16015625 303.78125 -205.16015625 303.78125 -202.5703125 302.359375 C-199.5703125 303.359375 -199.5703125 303.359375 -198.09765625 305.9921875 C-197.57300781 307.14460938 -197.04835938 308.29703125 -196.5078125 309.484375 C-190.81658826 321.46622663 -183.15062195 332.26988069 -174.5703125 342.359375 C-173.89742187 343.17792969 -173.22453125 343.99648438 -172.53125 344.83984375 C-156.60385659 363.51833239 -134.49690602 374.19379284 -110.28515625 377.078125 C-84.28745767 379.04640502 -58.98025487 374.7930506 -38.34375 357.75390625 C-23.77019406 345.20060223 -14.2095498 327.70237516 -12.5703125 308.359375 C-11.383966 286.31069124 -17.31633679 268.28822394 -31.6328125 251.421875 C-53.24552878 228.17732612 -85.10975062 215.37711735 -113.7265625 203.265625 C-140.97742101 191.72587598 -167.98279974 178.84508143 -190.5703125 159.359375 C-191.385 158.66585937 -192.1996875 157.97234375 -193.0390625 157.2578125 C-214.31852006 138.67112581 -229.47148567 114.0872633 -231.5703125 85.359375 C-232.97180742 53.23129274 -226.90534981 25.44123722 -204.69921875 1.203125 C-153.89575818 -52.79836659 -52.50565223 -48.64740941 0 0 Z " fill="#000000" transform="translate(1950.5703125,48.640625)"/>
<path d="M0 0 C198.07573614 0 198.07573614 0 237 37.5625 C249.98043847 50.5657439 257.80428308 66.61219052 262.8125 84.125 C263.00755127 84.80409424 263.20260254 85.48318848 263.40356445 86.18286133 C266.6290197 98.27511723 267.35026189 110.43147183 267.31567383 122.87548828 C267.31252156 125.23387316 267.33605261 127.59098821 267.36132812 129.94921875 C267.41978004 143.82821043 266.02590322 157.8951366 261.375 171.0625 C261.12194092 171.79307617 260.86888184 172.52365234 260.6081543 173.27636719 C255.46601132 187.48704768 247.83901572 199.60187871 238 211 C237.14535156 212.00740234 237.14535156 212.00740234 236.2734375 213.03515625 C211.60116254 239.79508525 174.17615546 246.72798057 140 251 C110.96 251 81.92 251 52 251 C52 312.38 52 373.76 52 437 C34.84 437 17.68 437 0 437 C0 292.79 0 148.58 0 0 Z M52 47 C52 99.14 52 151.28 52 205 C97.77677745 206.29291717 97.77677745 206.29291717 144.3125 202.6875 C145.13459961 202.55561279 145.95669922 202.42372559 146.80371094 202.2878418 C167.5633257 198.81244185 189.18413179 191.22436867 202.22265625 173.6796875 C210.24945013 161.57775211 214.48525318 147.52481233 215 133 C215.03996094 131.94683594 215.07992187 130.89367187 215.12109375 129.80859375 C215.52965809 108.29888279 211.52605216 87.24967361 196.3359375 71.27734375 C168.40161038 44.04371045 127.24667841 46.56857979 91.1875 46.8125 C78.255625 46.874375 65.32375 46.93625 52 47 Z " fill="#000000" transform="translate(500,24)"/>
<path d="M0 0 C2.88323088 2.50694843 4.26012242 5.22507947 5.8984375 8.65234375 C6.45289551 9.80573242 7.00735352 10.95912109 7.57861328 12.14746094 C8.17759996 13.41071669 8.77638982 14.67406579 9.375 15.9375 C10.00595376 17.25702436 10.63730808 18.57635725 11.26904297 19.89550781 C15.82639057 29.43395108 20.26090268 39.02797999 24.68115234 48.63061523 C30.05318807 60.23642074 35.69032694 71.71009213 41.32012939 83.19250488 C47.01700488 94.81680653 52.59292666 106.4782731 57.98828125 118.24609375 C62.82741199 128.7451698 67.91081333 139.1204238 73 149.5 C79.16208719 162.06792985 85.22262706 174.66339712 91.05859375 187.38671875 C95.71907937 197.50020913 100.6022312 207.49980093 105.5 217.5 C110.92475266 228.57618769 116.2952856 239.66416704 121.4375 250.875 C127.19201958 263.41805441 133.24653714 275.80514437 139.32150269 288.19525146 C145.01791606 299.81863693 150.59335433 311.4792059 155.98828125 323.24609375 C160.82741281 333.7451716 165.91086229 344.12039813 171 354.5 C177.22120975 367.18907794 183.34700994 379.90455303 189.2409668 392.74926758 C194.31882363 403.78217792 199.63587651 414.69641785 204.97363281 425.60546875 C205.30874374 426.29195999 205.64385468 426.97845123 205.98912048 427.68574524 C206.62176267 428.98135869 207.2561015 430.27614542 207.89234924 431.56999207 C210 435.88783946 210 435.88783946 210 437 C191.19 437 172.38 437 153 437 C150.421875 430.68875 147.84375 424.3775 145.1875 417.875 C138.48733034 401.48799484 131.75954327 385.11260348 125 368.75 C124.62015961 367.83023376 124.24031921 366.91046753 123.84896851 365.96282959 C117.92859735 351.62956976 111.96458953 337.31501486 106 323 C1.555 322.505 1.555 322.505 -105 322 C-105.99 324.97 -106.98 327.94 -108 331 C-109.16235254 333.97617951 -110.34341996 336.93432083 -111.5625 339.88671875 C-111.90637756 340.72615021 -112.25025513 341.56558167 -112.60455322 342.43045044 C-113.73349034 345.18399166 -114.86669281 347.93575488 -116 350.6875 C-116.79546056 352.62515665 -117.590704 354.56290243 -118.38574219 356.50073242 C-125.10382556 372.86446522 -131.85838819 389.21331753 -138.62890625 405.55541992 C-139.38294093 407.3767372 -140.13685077 409.19810617 -140.890625 411.01953125 C-141.24733276 411.88106308 -141.60404053 412.74259491 -141.97155762 413.63023376 C-144.67850887 420.1836288 -147.3093919 426.76478103 -149.89746094 433.3659668 C-151 436 -151 436 -152 437 C-153.7492872 437.09365006 -155.50236254 437.11744438 -157.25415039 437.11352539 C-158.37523697 437.11344986 -159.49632355 437.11337433 -160.65138245 437.11329651 C-162.48103798 437.10555458 -162.48103798 437.10555458 -164.34765625 437.09765625 C-165.58921982 437.0962413 -166.83078339 437.09482635 -168.10997009 437.09336853 C-171.41605491 437.08870591 -174.72207146 437.07971497 -178.02813721 437.06866455 C-181.3996115 437.05844827 -184.77109283 437.05387045 -188.14257812 437.04882812 C-194.76173775 437.03777395 -201.38086493 437.02101736 -208 437 C-206.6491736 432.66906274 -204.98051601 428.68713163 -202.98046875 424.6171875 C-202.68603882 424.01442993 -202.39160889 423.41167236 -202.08825684 422.79064941 C-201.45495773 421.49437436 -200.82013594 420.1988423 -200.18392944 418.9039917 C-198.46764813 415.40919278 -196.76437816 411.90808091 -195.0625 408.40625 C-194.71620041 407.69383148 -194.36990082 406.98141296 -194.0131073 406.24740601 C-190.82033237 399.66182302 -187.74293647 393.0253263 -184.6875 386.375 C-179.23621113 374.53045593 -173.55328374 362.80895141 -167.82455444 351.09686279 C-162.94262394 341.11120568 -158.14078351 331.10052882 -153.5 321 C-148.48684192 310.08900889 -143.27572536 299.28583612 -138 288.5 C-132.16485412 276.57030781 -126.44901078 264.6023326 -120.90234375 252.53515625 C-116.21027776 242.36510322 -111.31069456 232.30159765 -106.39520264 222.23815918 C-101.67977441 212.57930975 -97.05168975 202.89155785 -92.5625 193.125 C-87.15468327 181.36231234 -81.51212953 169.7247201 -75.82400513 158.09576416 C-70.94225938 148.11047341 -66.14061219 138.10015594 -61.5 128 C-56.48684192 117.08900889 -51.27572536 106.28583612 -46 95.5 C-40.70391382 84.67239102 -35.47291476 73.82690718 -30.4375 62.875 C-25.46333788 52.06014704 -20.3311548 41.32974405 -15.125 30.625 C-14.76969208 29.89392029 -14.41438416 29.16284058 -14.04830933 28.40960693 C-9.42759571 18.90830399 -4.74503838 9.43985488 0 0 Z M0 94 C-9.97407504 113.67695166 -19.45844766 133.58963877 -28.70849609 153.61572266 C-33.50736573 163.98518926 -38.40223542 174.30788329 -43.3125 184.625 C-49.94585458 198.56451025 -56.55755069 212.51362579 -63.11865234 226.48730469 C-63.76138409 227.85612408 -64.40412498 229.22493918 -65.046875 230.59375 C-65.36439728 231.27004456 -65.68191956 231.94633911 -66.00906372 232.64312744 C-68.12118525 237.13861207 -70.24338886 241.62922947 -72.3712616 246.11727905 C-73.867992 249.27454858 -75.36211895 252.43304709 -76.85610962 255.59161377 C-77.57061998 257.10032252 -78.28639712 258.60843206 -79.00350952 260.11590576 C-79.99389565 262.19813322 -80.97983035 264.2824143 -81.96484375 266.3671875 C-82.80970337 268.14778564 -82.80970337 268.14778564 -83.67163086 269.96435547 C-85.14154135 273.09377655 -85.14154135 273.09377655 -86 277 C-28.91 277 28.18 277 87 277 C83.69741865 268.71157676 83.69741865 268.71157676 80.00390625 260.6640625 C79.4521875 259.53226563 78.90046875 258.40046875 78.33203125 257.234375 C78.04408691 256.64720703 77.75614258 256.06003906 77.45947266 255.45507812 C75.89258039 252.25817436 74.33829675 249.05516513 72.78515625 245.8515625 C72.46717072 245.19577209 72.14918518 244.53998169 71.82156372 243.86431885 C68.6367426 237.27873588 65.56162235 230.64364978 62.5 224 C57.81280471 213.83762958 53.00271809 203.74140097 48.11373901 193.67523193 C43.8380581 184.86687244 39.66189443 176.01706881 35.5625 167.125 C30.68286767 156.54252109 25.65745745 146.04090463 20.55737305 135.56350708 C13.85741814 121.79203134 7.3960017 107.91494058 1 94 C0.67 94 0.34 94 0 94 Z " fill="#000000" transform="translate(216,24)"/>
<path d="M0 0 C116.49 0 232.98 0 353 0 C353 15.84 353 31.68 353 48 C303.17 48 253.34 48 202 48 C202 176.37 202 304.74 202 437 C184.84 437 167.68 437 150 437 C150 308.63 150 180.26 150 48 C100.5 48 51 48 0 48 C0 32.16 0 16.32 0 0 Z " fill="#000000" transform="translate(802,24)"/>
<path d="M0 0 C3.29539624 1.7497132 5.5133276 4.24945408 8 7 C8.99346663 8.06243849 9.98836628 9.12353804 10.984375 10.18359375 C13.06500951 12.41010417 15.12406161 14.6538257 17.16796875 16.9140625 C22.95483217 23.86049597 22.95483217 23.86049597 30.97156072 27.25480902 C31.66872724 27.25708734 32.36589377 27.25936567 33.08418655 27.26171303 C34.29790432 27.27291127 34.29790432 27.27291127 35.53614163 27.28433573 C36.41940838 27.282401 37.30267512 27.28046626 38.21270752 27.2784729 C39.15534226 27.2842653 40.097977 27.2900577 41.06917644 27.29602563 C44.23527965 27.31306307 47.40123742 27.31590538 50.56738281 27.31884766 C52.83395751 27.32814324 55.10052877 27.33831135 57.36709595 27.34928894 C63.52781233 27.37664464 69.68850578 27.39175487 75.84926701 27.40471697 C82.28485312 27.42032314 88.72039222 27.44712135 95.15594482 27.4727478 C105.96007031 27.51425572 116.76419459 27.54883745 127.56835938 27.578125 C138.69663336 27.60831008 149.82488163 27.64266015 160.953125 27.68261719 C161.63908309 27.68507874 162.32504118 27.68754028 163.03178588 27.69007643 C166.47303998 27.70245102 169.91429377 27.71490755 173.35554743 27.72740483 C201.90366197 27.83097433 230.45181014 27.92002963 259 28 C258.86119048 29.73098487 258.71697647 31.46153678 258.57055664 33.19189453 C258.45098351 34.63751266 258.45098351 34.63751266 258.32899475 36.11233521 C257.8278072 40.51137696 256.70024629 44.64137708 255.4375 48.875 C255.04812256 50.206521 255.04812256 50.206521 254.65087891 51.56494141 C252.63996392 58.2613236 250.34375569 64.83456621 247.875 71.375 C247.55072021 72.23593262 247.22644043 73.09686523 246.89233398 73.98388672 C244.9612348 78.95292865 242.66101298 83.38420588 240 88 C210.08821035 88.06847556 180.17642335 88.12154853 150.26457218 88.15319599 C146.7311502 88.15694799 143.19772838 88.16083097 139.66430664 88.16479492 C138.6091702 88.16597532 138.6091702 88.16597532 137.53271788 88.16717956 C126.15122068 88.18022436 114.76976906 88.20387309 103.38829888 88.23145839 C91.70506005 88.25953838 80.02184506 88.27618174 68.33857387 88.28226548 C61.77827322 88.2861759 55.21807585 88.29536454 48.6578083 88.31719017 C42.48140371 88.33757198 36.30514483 88.34383029 30.12870979 88.33932304 C27.86361397 88.34014748 25.59851321 88.3461029 23.3334465 88.35761642 C20.23604082 88.37258679 17.13918219 88.36893677 14.04176331 88.36076355 C13.14971508 88.36950207 12.25766686 88.3782406 11.33858687 88.38724393 C4.32443624 88.33736714 -2.07390137 87.22782509 -7.75 82.90625 C-8.4925 82.1121875 -9.235 81.318125 -10 80.5 C-10.83015625 79.62085938 -11.6603125 78.74171875 -12.515625 77.8359375 C-15.00830038 74.99052504 -17.38898526 72.08022986 -19.75 69.125 C-24.77150359 62.60275229 -24.77150359 62.60275229 -32.19140625 59.671875 C-36.95488422 59.4521429 -40.25910035 59.84976872 -44 63 C-45.59322019 64.74317033 -47.11875572 66.53670827 -48.6484375 68.3359375 C-51.83555127 71.94658798 -55.14246811 75.42299389 -58.5 78.875 C-59.12890137 79.54176758 -59.75780273 80.20853516 -60.40576172 80.89550781 C-61.02467285 81.52553711 -61.64358398 82.15556641 -62.28125 82.8046875 C-62.82845703 83.37171387 -63.37566406 83.93874023 -63.93945312 84.52294922 C-69.78702037 88.71462953 -76.82925354 88.27728604 -83.70874023 88.22705078 C-84.76314804 88.22734283 -85.81755585 88.22763489 -86.90391541 88.22793579 C-90.37222664 88.22654786 -93.84032026 88.21101176 -97.30859375 88.1953125 C-99.7199746 88.19158047 -102.13135696 88.18873439 -104.54273987 88.18673706 C-110.87698584 88.17911562 -117.21113951 88.15947983 -123.54534912 88.1373291 C-130.01394401 88.11683864 -136.48255386 88.1077285 -142.95117188 88.09765625 C-155.63415387 88.0762326 -168.31707202 88.04250122 -181 88 C-182.28985418 84.95378921 -183.57726681 81.90655229 -184.86425781 78.85913086 C-185.22762238 78.0010659 -185.59098694 77.14300095 -185.96536255 76.25893402 C-188.42833002 70.42257011 -190.75993655 64.57909078 -192.75 58.5625 C-193.01425781 57.81419922 -193.27851562 57.06589844 -193.55078125 56.29492188 C-195.59920638 50.17438591 -196.86521589 43.955294 -198.10253906 37.63256836 C-198.28591827 36.70518608 -198.46929749 35.7778038 -198.65823364 34.82231903 C-199.10753139 32.54860704 -199.55472743 30.27450307 -200 28 C-199.19308464 27.99853344 -198.38616928 27.99706688 -197.55480194 27.99555588 C-177.90728586 27.95848024 -158.25994746 27.89945545 -138.61257172 27.81609726 C-129.1111778 27.77631309 -119.60986663 27.74391743 -110.10839844 27.72900391 C-101.82547568 27.71598417 -93.54273505 27.68901128 -85.25991488 27.64538693 C-80.8754883 27.62277935 -76.4912863 27.6070889 -72.10679626 27.60811615 C-67.9764191 27.60886318 -63.84653824 27.5908954 -59.71628952 27.55883217 C-58.20386901 27.55034271 -56.69139278 27.54857678 -55.17895889 27.55419731 C-45.81355325 27.58435411 -38.82617528 27.27309711 -31.51171875 20.796875 C-30.68285156 19.87390625 -29.85398437 18.9509375 -29 18 C-27.69600175 16.60750754 -26.38980355 15.21707363 -25.08203125 13.828125 C-22.92469324 11.51711906 -20.76977523 9.20396529 -18.61914062 6.88671875 C-17.92626953 6.14550781 -17.23339844 5.40429688 -16.51953125 4.640625 C-15.89151611 3.96547852 -15.26350098 3.29033203 -14.61645508 2.59472656 C-10.65053445 -1.31788385 -5.20469291 -0.81656164 0 0 Z " fill="#000000" transform="translate(1371,257)"/>
<path d="M0 0 C9.66685116 3.86674046 15.89600854 13.57403457 21.78515625 21.7734375 C27.7060204 27.72562897 33.69707389 28.46552211 41.75302124 28.56114197 C43.01466095 28.5561116 44.27630066 28.55108124 45.57617188 28.54589844 C46.93695246 28.55464555 48.29772279 28.56513529 49.65847778 28.57722473 C53.33152329 28.60496663 57.00423123 28.60849206 60.67736626 28.60750484 C64.52379702 28.61064418 68.37007802 28.63628352 72.21643066 28.65948486 C79.49060199 28.69997055 86.76468385 28.72036802 94.03895044 28.73345876 C102.32442716 28.74935407 110.60975215 28.78778028 118.89514065 28.82805204 C135.93004843 28.91034919 152.96493171 28.96450482 170 29 C171.12561539 32.75273278 172.23950311 36.50885492 173.3515625 40.265625 C173.66552979 41.31186035 173.97949707 42.3580957 174.30297852 43.43603516 C177.9558644 55.82242208 180.51428155 68.44048812 181.54541016 81.32128906 C181.63166656 82.38865295 181.71792297 83.45601685 181.80679321 84.5557251 C181.87055145 85.36233582 181.93430969 86.16894653 182 87 C158.65184879 87.09345077 135.30372843 87.16398291 111.95542812 87.20724869 C101.11434616 87.2278719 90.27338041 87.25598801 79.43237305 87.30175781 C69.98309837 87.34163281 60.53390787 87.36743456 51.08455139 87.37635398 C46.0813871 87.38156758 41.07846361 87.39381659 36.07537651 87.42292023 C31.36483264 87.45009971 26.65462844 87.45843984 21.9440136 87.45243073 C20.21666111 87.45352983 18.48929709 87.46146865 16.76201248 87.4768219 C14.39935309 87.49679006 12.03796797 87.49191516 9.67527771 87.48101807 C8.99529691 87.49266943 8.3153161 87.5043208 7.61472982 87.51632524 C1.6305446 87.44196792 -2.56037731 85.2990683 -6.8984375 81.2109375 C-7.38570312 80.60507813 -7.87296875 79.99921875 -8.375 79.375 C-9.23158203 78.34246094 -9.23158203 78.34246094 -10.10546875 77.2890625 C-11.04326172 76.15597656 -11.04326172 76.15597656 -12 75 C-13.55419744 73.24262225 -15.11694583 71.49277533 -16.6875 69.75 C-17.41324219 68.94046875 -18.13898438 68.1309375 -18.88671875 67.296875 C-23.11054167 62.19005097 -23.11054167 62.19005097 -28.953125 59.76171875 C-30.09007812 59.72498047 -30.09007812 59.72498047 -31.25 59.6875 C-31.99765625 59.65011719 -32.7453125 59.61273438 -33.515625 59.57421875 C-39.74781201 60.64231369 -43.8239364 65.67179599 -47.8125 70.1875 C-48.85664478 71.3437392 -49.90223047 72.49867874 -50.94921875 73.65234375 C-51.71758057 74.50094971 -51.71758057 74.50094971 -52.50146484 75.36669922 C-61.62800331 85.31400166 -61.62800331 85.31400166 -65 87 C-67.85960732 87.09597373 -70.69478572 87.13009766 -73.55459595 87.12025452 C-74.45060276 87.12110894 -75.34660958 87.12196337 -76.26976812 87.12284368 C-79.29005417 87.12449862 -82.31028542 87.11897686 -85.33056641 87.11352539 C-87.48846943 87.1132435 -89.64637255 87.1134013 -91.80427551 87.1139679 C-97.67794504 87.11425578 -103.55159431 87.10836048 -109.42525911 87.10139394 C-115.55786824 87.09515893 -121.69047779 87.09455648 -127.8230896 87.09336853 C-139.44300637 87.09025565 -151.06291377 87.08204284 -162.6828264 87.07201904 C-175.9087384 87.06085657 -189.13465084 87.05534711 -202.36056638 87.05032361 C-229.57371612 87.0398602 -256.78685754 87.02226159 -284 87 C-283.69264383 83.9647828 -283.3820393 80.92995624 -283.06958008 77.89526367 C-282.98351753 77.04204277 -282.89745499 76.18882187 -282.80878448 75.30974579 C-282.14298477 68.87935676 -281.13773534 62.61562642 -279.6875 56.3125 C-279.49994141 55.43529297 -279.31238281 54.55808594 -279.11914062 53.65429688 C-277.83395278 47.88128266 -276.18869725 42.26380567 -274.40551758 36.62963867 C-274.17386147 35.89324913 -273.94220535 35.15685959 -273.70352936 34.39815521 C-273.13710867 32.59832187 -272.56875284 30.79909773 -272 29 C-270.82201591 28.99761165 -269.64403183 28.99522329 -268.43035126 28.99276257 C-240.4557133 28.93537971 -212.48114789 28.86263281 -184.50660047 28.77101372 C-181.06201786 28.75974581 -177.61743485 28.74860731 -174.17285156 28.73754883 C-173.14423719 28.7342433 -173.14423719 28.7342433 -172.09484273 28.730871 C-160.99723311 28.69551654 -149.89962356 28.67064197 -138.80197853 28.64965298 C-127.41136776 28.62787615 -116.02084083 28.59458603 -104.63028765 28.55129844 C-98.23381369 28.52735394 -91.83742047 28.50863313 -85.44090271 28.50238609 C-79.41957194 28.49634091 -73.39844777 28.47636107 -67.37719345 28.44572449 C-65.16813974 28.43693527 -62.95905904 28.4332235 -60.74998856 28.43499184 C-57.73099572 28.43664538 -54.71263205 28.41993781 -51.69372559 28.39872742 C-50.82211021 28.40357499 -49.95049483 28.40842257 -49.05246687 28.41341704 C-40.59869091 28.3155801 -34.31965692 25.93160963 -28.0703125 20.16015625 C-24.87448505 16.82564195 -22.05216128 13.21061203 -19.1796875 9.59765625 C-13.69717903 3.06384239 -8.84701726 -1.08166087 0 0 Z " fill="#000000" transform="translate(1452,136)"/>
<path d="M0 0 C1.45195069 1.29434971 2.91887508 2.5718464 4.38671875 3.84814453 C8.83580397 7.75449496 12.94365723 11.74135468 16.75390625 16.27392578 C19.53693357 19.54307141 22.49486249 22.65273187 25.4296875 25.78564453 C27.9101596 28.82548372 29.62764397 31.95263693 31.54296875 35.37548828 C24.53213475 35.45166921 17.52140786 35.50414323 10.51025391 35.5402832 C8.12609874 35.55535228 5.74197122 35.57581119 3.35791016 35.60180664 C-0.07266062 35.63827165 -3.50286425 35.6552338 -6.93359375 35.66845703 C-7.996315 35.68394089 -9.05903625 35.69942474 -10.15396118 35.71537781 C-16.81324696 35.71688587 -21.29875119 35.03788885 -26.546875 30.61376953 C-27.46146484 29.66050781 -27.46146484 29.66050781 -28.39453125 28.68798828 C-29.40966797 27.63224609 -29.40966797 27.63224609 -30.4453125 26.55517578 C-34.09718613 22.59838843 -37.68234874 18.58949171 -41.05078125 14.38720703 C-44.79304837 9.77619933 -47.35053471 7.77206231 -53.39453125 7.00048828 C-59.60690617 7.76118725 -63.76034175 12.44685255 -67.96875 16.76220703 C-68.71110649 17.51592339 -68.71110649 17.51592339 -69.46846008 18.28486633 C-71.03214583 19.8727639 -72.58910368 21.46700324 -74.14453125 23.06298828 C-76.2051726 25.17681564 -78.27235143 27.28392611 -80.34375 29.38720703 C-81.70826294 30.78652466 -81.70826294 30.78652466 -83.1003418 32.21411133 C-86.27730766 35.12778363 -88.64217794 35.50058185 -92.79298687 35.49853611 C-94.1291203 35.50152268 -94.1291203 35.50152268 -95.49224633 35.50456959 C-96.47180867 35.50165675 -97.45137102 35.49874391 -98.46061707 35.4957428 C-100.02029543 35.49702444 -100.02029543 35.49702444 -101.61148244 35.49833196 C-105.11234345 35.49998537 -108.61315704 35.49446762 -112.11401367 35.48901367 C-114.6168874 35.48873174 -117.11976121 35.48888964 -119.62263489 35.48945618 C-125.01975812 35.48968425 -130.41686647 35.48683902 -135.81398582 35.48121834 C-143.61734735 35.47309703 -151.42070303 35.47048747 -159.22406832 35.46923035 C-171.88400133 35.46704082 -184.54392791 35.46038343 -197.20385742 35.45092773 C-209.50301074 35.44175105 -221.80216231 35.43467147 -234.10131836 35.43041992 C-234.85922707 35.4301572 -235.61713577 35.42989447 -236.39801141 35.42962379 C-240.20015359 35.42831877 -244.00229579 35.42705506 -247.80443799 35.42581189 C-279.35530709 35.41544237 -310.9061682 35.3977525 -342.45703125 35.37548828 C-330.15107137 9.84095702 -300.17769235 -11.49795528 -276.45703125 -25.62451172 C-275.79155273 -26.02234863 -275.12607422 -26.42018555 -274.44042969 -26.83007812 C-248.52969053 -42.15292641 -220.209443 -52.07771384 -190.45703125 -56.62451172 C-189.76432129 -56.74020508 -189.07161133 -56.85589844 -188.35791016 -56.97509766 C-121.37371671 -67.96252681 -50.1240195 -44.76875955 0 0 Z " fill="#000000" transform="translate(1556.45703125,67.62451171875)"/>
<path d="M0 0 C7.48063114 4.69148568 13.36617706 12.62339161 18.94921875 19.34765625 C19.54347656 20.05792969 20.13773438 20.76820313 20.75 21.5 C21.26046875 22.1290625 21.7709375 22.758125 22.296875 23.40625 C27.17882021 27.97467579 33.32047389 27.29048938 39.58576965 27.2784729 C41.20313925 27.2871615 41.20313925 27.2871615 42.85318297 27.29602563 C46.4722205 27.31305349 50.09113071 27.31590458 53.71020508 27.31884766 C56.30204583 27.32814389 58.89388359 27.3383121 61.48571777 27.34928894 C67.06886569 27.37155605 72.65199529 27.38657262 78.23517799 27.39665604 C86.30750239 27.41124541 94.37976298 27.43678296 102.45204993 27.46498732 C115.5489897 27.51045061 128.64593865 27.54706733 141.74291992 27.578125 C154.46494154 27.60831244 167.18694069 27.6426636 179.90893555 27.68261719 C180.69320177 27.68507874 181.47746799 27.68754028 182.28549985 27.69007643 C186.21995763 27.70245107 190.15441515 27.71490759 194.08887255 27.72740483 C226.72588456 27.8309657 259.36292118 27.92017124 292 28 C271.74234364 62.48276659 218.94263946 85.75186055 182.3046875 95.734375 C175.91402442 97.39189568 169.48573666 98.77050382 163 100 C162.14374023 100.16516113 161.28748047 100.33032227 160.40527344 100.50048828 C134.25141796 105.30679354 105.08628714 105.03169822 79 100 C78.09475586 99.82839355 77.18951172 99.65678711 76.25683594 99.47998047 C55.96127992 95.51373402 36.59672228 89.02859908 18 80 C17.29423828 79.65743164 16.58847656 79.31486328 15.86132812 78.96191406 C-7.35252982 67.52551848 -27.37805914 51.83241412 -46 34 C-46.77859375 33.26910156 -47.5571875 32.53820312 -48.359375 31.78515625 C-50 30 -50 30 -50 28 C-49.2265625 27.85304688 -48.453125 27.70609375 -47.65625 27.5546875 C-36.10723224 25.06764655 -30.3823679 19.85884148 -23 11 C-21.47026467 9.19813558 -19.92819524 7.40668182 -18.375 5.625 C-17.66085937 4.79226563 -16.94671875 3.95953125 -16.2109375 3.1015625 C-11.38386395 -1.48671589 -6.18160381 -1.91162202 0 0 Z " fill="#000000" transform="translate(1280,373)"/>
</svg>
