<svg width="130" height="41" viewBox="0 0 130 41" fill="none" xmlns="http://www.w3.org/2000/svg">
<g clip-path="url(#clip0_682_1147)">
<path d="M61.5639 30.5015L50.0347 20.3146V30.5015H46.0935V11.606H46.2553L57.7404 22.0709V12.0158H61.711V30.4868H61.5786L61.5639 30.5015Z" fill="black"/>
<path d="M74.339 11.606C69.0105 11.606 65.1272 15.896 65.1272 21.2366C65.1272 26.5771 69.0105 30.8671 74.339 30.8671C79.6676 30.8671 83.551 26.6501 83.551 21.2366C83.551 15.823 79.6385 11.606 74.339 11.606ZM74.339 27.1755C71.1565 27.1755 68.9083 24.5197 68.9083 21.2366C68.9083 17.9535 71.1565 15.2977 74.339 15.2977C77.5217 15.2977 79.7698 17.9826 79.7698 21.2366C79.7698 24.4906 77.5217 27.1755 74.339 27.1755Z" fill="black"/>
<path d="M86.958 30.5004V12.0927H92.5448C98.9089 12.0927 102.941 15.8997 102.941 21.2965C102.941 26.6934 98.9382 30.5004 92.6035 30.5004H86.958ZM90.9611 15.3891V27.204H92.5448C96.548 27.204 98.9089 24.6513 98.9089 21.2965C98.9089 17.9417 96.548 15.3891 92.4862 15.3891H90.9464H90.9611Z" fill="black"/>
<path d="M106.61 30.5004V12.0927H110.392V30.5004H106.61Z" fill="black"/>
<path d="M123.944 15.7683V30.5004H119.869V15.7683H114.173V12.0927H129.669V15.7683H123.944Z" fill="black"/>
<path fill-rule="evenodd" clip-rule="evenodd" d="M26.5351 5.02379L18.27 0.268372L14.6458 2.35253L0.944458 10.2342V30.1658L5.39371 32.7197V12.788L18.27 5.37603L22.1006 7.57762V26.9075L26.5497 24.3537V5.02379H26.5351ZM35.5956 10.2342L31.1464 7.68036V27.612L18.27 35.024L14.4395 32.8225V13.287L9.99029 15.8409V35.3762L18.2553 40.1317L35.5808 30.1658V10.2342H35.5956Z" fill="black"/>
</g>
<defs>
<clipPath id="clip0_682_1147">
<rect width="129" height="40" fill="white" transform="translate(0.944458 0.200012)"/>
</clipPath>
</defs>
</svg>
