<svg width="135" height="29" viewBox="0 0 135 29" fill="none" xmlns="http://www.w3.org/2000/svg">
<path d="M17.9344 14.5343C17.8356 10.8057 16.5175 5.51685 14.3281 2.01479L15.6948 0.5C22.1752 2.75943 26.7414 8.19183 26.7414 14.5343C26.7414 20.8135 22.2658 26.2007 15.8881 28.5L14.3207 27.0914C16.6378 23.5135 18.0931 20.5183 17.9344 14.5343Z" fill="black"/>
<path d="M9.68239 14.7796C8.78865 11.4441 7.49656 9.15113 4.67693 6.51326L5.35964 5.17679C10.3941 5.5484 14.9387 8.37509 15.9532 13.0591C16.8356 17.6608 15.0365 22.3121 10.8275 25.0341L9.44572 24.3317C10.4447 20.8871 10.3649 17.3266 9.68239 14.7796Z" fill="black"/>
<path d="M4.03421 16.9406C3.03684 15.0926 1.6059 13.6609 0 12.7475L0.216204 11.8609C3.2472 11.3735 6.19882 12.5418 7.5463 15.0385C8.88035 17.5103 8.26308 20.5818 6.24102 22.8419L5.32474 22.6204C5.44391 20.7749 5.03271 18.7906 4.03421 16.9406Z" fill="black"/>
<path d="M44.773 3.78076C46.2392 3.78076 47.5222 4.08624 48.6525 4.6361C49.7522 5.18595 50.6381 5.9802 51.2491 7.01882C51.86 8.05744 52.1655 9.2488 52.1655 10.5929C52.1655 11.9675 51.86 13.1589 51.2491 14.1975C50.6381 15.2361 49.7522 16.0304 48.6525 16.5802C47.5222 17.1301 46.2392 17.405 44.773 17.405H39.8548V25.1641H36.3418V3.78076H44.773ZM39.8548 14.3503H44.4675C45.7199 14.3503 46.728 14.0142 47.4611 13.3422C48.1943 12.6701 48.5914 11.7537 48.5914 10.5929C48.5914 9.43208 48.2248 8.51565 47.4917 7.8436C46.7585 7.17155 45.7505 6.83553 44.498 6.83553H39.8548V14.3503Z" fill="black"/>
<path d="M67.7457 9.52372V25.1641H64.8437L64.4771 22.7814C63.9273 23.5757 63.2247 24.1866 62.3694 24.6448C61.514 25.1336 60.506 25.3474 59.3757 25.3474C57.9399 25.3474 56.6569 25.0419 55.5572 24.4004C54.427 23.7589 53.5411 22.8425 52.9301 21.6206C52.2886 20.3987 51.9832 18.9935 51.9832 17.3439C51.9832 15.7554 52.2886 14.3808 52.9301 13.1589C53.5716 11.937 54.4575 11.0206 55.5878 10.3485C56.6875 9.67646 57.9705 9.34044 59.3757 9.34044C60.5365 9.34044 61.5446 9.58482 62.3999 10.0125C63.2552 10.4402 63.9273 11.0511 64.4771 11.8148L64.8743 9.52372H67.7457ZM63.2247 21.1318C64.0495 20.1849 64.4771 18.9324 64.4771 17.405C64.4771 15.8776 64.0495 14.5946 63.2247 13.6171C62.3694 12.6396 61.2696 12.1508 59.9255 12.1508C58.5509 12.1508 57.4512 12.6396 56.6264 13.6171C55.7711 14.5946 55.3739 15.8165 55.3739 17.3439C55.3739 18.9019 55.7711 20.1543 56.6264 21.1318C57.4512 22.1094 58.5509 22.5676 59.9255 22.5676C61.2696 22.5676 62.3694 22.1094 63.2247 21.1318Z" fill="black"/>
<path d="M82.5167 11.0511C83.6775 12.2119 84.2885 14.0448 84.2885 16.5497V25.1641H80.9588V16.733C80.9588 15.2667 80.6228 14.1364 80.0118 13.3422C79.3703 12.5785 78.4539 12.1814 77.232 12.1814C75.9184 12.1814 74.8798 12.6396 74.1467 13.556C73.4135 14.4724 73.047 15.6944 73.047 17.2828V25.1641H69.7478V9.52372H72.6193L72.9859 11.5704C74.1467 10.1041 75.8268 9.34044 77.9957 9.34044C79.8285 9.34044 81.3559 9.92084 82.5167 11.0511Z" fill="black"/>
<path d="M101.249 9.52372V25.1641H98.3471L97.9805 22.7814C97.4307 23.5757 96.7281 24.1866 95.8727 24.6448C95.0174 25.1336 94.0093 25.3474 92.8791 25.3474C91.4433 25.3474 90.1603 25.0419 89.0606 24.4004C87.9304 23.7589 87.0445 22.8425 86.4335 21.6206C85.792 20.3987 85.4865 18.9935 85.4865 17.3439C85.4865 15.7554 85.792 14.3808 86.4335 13.1589C87.075 11.937 87.9609 11.0206 89.0912 10.3485C90.1909 9.67646 91.4739 9.34044 92.8791 9.34044C94.0399 9.34044 95.048 9.58482 95.9033 10.0125C96.7586 10.4402 97.4307 11.0511 97.9805 11.8148L98.3777 9.52372H101.249ZM96.7281 21.1318C97.5529 20.1849 97.9805 18.9324 97.9805 17.405C97.9805 15.8776 97.5529 14.5946 96.7281 13.6171C95.8727 12.6396 94.773 12.1508 93.4289 12.1508C92.0543 12.1508 90.9546 12.6396 90.1298 13.6171C89.2744 14.5946 88.8773 15.8165 88.8773 17.3439C88.8773 18.9019 89.2744 20.1543 90.1298 21.1318C90.9546 22.1094 92.0543 22.5676 93.4289 22.5676C94.773 22.5676 95.8727 22.1094 96.7281 21.1318Z" fill="black"/>
<path d="M116.02 11.0511C117.181 12.2119 117.792 14.0448 117.792 16.5497V25.1641H114.462V16.733C114.462 15.2667 114.126 14.1364 113.515 13.3422C112.874 12.5785 111.957 12.1814 110.735 12.1814C109.422 12.1814 108.383 12.6396 107.65 13.556C106.917 14.4724 106.55 15.6944 106.55 17.2828V25.1641H103.251V9.52372H106.123L106.489 11.5704C107.65 10.1041 109.33 9.34044 111.499 9.34044C113.332 9.34044 114.859 9.92084 116.02 11.0511Z" fill="black"/>
<path d="M134.753 9.52372V25.1641H131.85L131.484 22.7814C130.934 23.5757 130.231 24.1866 129.376 24.6448C128.521 25.1336 127.513 25.3474 126.382 25.3474C124.947 25.3474 123.664 25.0419 122.564 24.4004C121.434 23.7589 120.548 22.8425 119.937 21.6206C119.295 20.3987 118.99 18.9935 118.99 17.3439C118.99 15.7554 119.295 14.3808 119.937 13.1589C120.578 11.937 121.464 11.0206 122.595 10.3485C123.694 9.67646 124.977 9.34044 126.382 9.34044C127.543 9.34044 128.551 9.58482 129.407 10.0125C130.262 10.4402 130.934 11.0511 131.484 11.8148L131.881 9.52372H134.753ZM130.231 21.1318C131.056 20.1849 131.484 18.9324 131.484 17.405C131.484 15.8776 131.056 14.5946 130.231 13.6171C129.376 12.6396 128.276 12.1508 126.932 12.1508C125.558 12.1508 124.458 12.6396 123.633 13.6171C122.778 14.5946 122.381 15.8165 122.381 17.3439C122.381 18.9019 122.778 20.1543 123.633 21.1318C124.458 22.1094 125.558 22.5676 126.932 22.5676C128.276 22.5676 129.376 22.1094 130.231 21.1318Z" fill="black"/>
</svg>
